<?xml version="1.0" encoding="UTF-8"?>
<svg width="51px" height="30px" viewBox="0 0 51 30" version="1.1" xmlns="http://www.w3.org/2000/svg" xmlns:xlink="http://www.w3.org/1999/xlink">
    <!-- Generator: Sketch 46.1 (44463) - http://www.bohemiancoding.com/sketch -->
    <title>Shape</title>
    <desc>Created with Sketch.</desc>
    <defs></defs>
    <g id="portfolio-Design-2" stroke="none" stroke-width="1" fill="none" fill-rule="evenodd">
        <g id="A4" transform="translate(-1098.000000, -2722.000000)" fill-rule="nonzero" fill="#FFFFFF">
            <g id="chevron-down" transform="translate(1098.000000, 2722.000000)">
                <path d="M2.21142857,2.34857143 C4.08,0.437142857 6.68142857,0.287142857 8.96571429,2.34857143 L25.7142857,18.4071429 L42.4628571,2.34857143 C44.7471429,0.287142857 47.3528571,0.437142857 49.2085714,2.34857143 C51.0771429,4.25571429 50.9571429,7.47857143 49.2085714,9.27 C47.4685714,11.0614286 29.0871429,28.5642857 29.0871429,28.5642857 C28.1571429,29.52 26.9357143,30 25.7142857,30 C24.4928571,30 23.2714286,29.52 22.3328571,28.5642857 C22.3328571,28.5642857 3.96,11.0614286 2.21142857,9.27 C0.458571429,7.47857143 0.342857143,4.25571429 2.21142857,2.34857143 Z" id="Shape"></path>
            </g>
        </g>
    </g>
</svg>