<?xml version="1.0" encoding="UTF-8"?>
<svg width="68px" height="46px" viewBox="0 0 68 46" version="1.1" xmlns="http://www.w3.org/2000/svg" xmlns:xlink="http://www.w3.org/1999/xlink">
    <!-- Generator: Sketch 51.1 (57501) - http://www.bohemiancoding.com/sketch -->
    <title>behance</title>
    <desc>Created with Sketch.</desc>
    <defs></defs>
    <g id="wireframes" stroke="none" stroke-width="1" fill="none" fill-rule="evenodd">
        <g id="Apple-TV" transform="translate(-694.000000, -2940.000000)" fill="#FFFFFF" fill-rule="nonzero">
            <g id="Group-2" transform="translate(694.000000, 2938.000000)">
                <g id="behance" transform="translate(0.000000, 2.531646)">
                    <path d="M27.3688969,20.0983273 C27.3688969,20.0983273 33.783906,19.5999096 33.783906,11.7608499 C33.783906,3.91161844 28.5352622,0.0938065099 21.8829114,0.0938065099 L0,0.0938065099 L0,43.92066 L21.8829114,43.92066 C21.8829114,43.92066 35.2452532,44.358047 35.2452532,30.9821429 C35.2418626,30.9787523 35.8250452,20.0983273 27.3688969,20.0983273 Z M9.64285714,7.87861664 L21.8829114,7.87861664 C21.8829114,7.87861664 24.8598553,7.87861664 24.8598553,12.4355787 C24.8598553,16.9993219 23.1103074,17.6604882 21.1234177,17.6604882 L9.64285714,17.6604882 L9.64285714,7.87861664 Z M21.2624322,36.1290687 L9.64285714,36.1290687 L9.64285714,24.4145333 L21.8829114,24.414557 C21.8829114,24.414557 26.3178119,24.3535262 26.3178119,30.4328662 C26.3178119,35.5594485 23.0051989,36.0917722 21.2624322,36.1290687 Z M53.0594485,11.238698 C36.8829114,11.238698 36.8964738,28.079792 36.8964738,28.079792 C36.8964738,28.079792 35.7911392,44.8327306 53.0594485,44.8327306 C53.0594485,44.8327306 67.4457505,45.6939421 67.4457505,33.1792495 L60.0474684,33.1792495 C60.0474684,33.1792495 60.2915913,37.8955696 53.306962,37.8955696 C53.306962,37.8955696 45.9018987,38.4109403 45.9018987,30.2667269 L67.6797016,30.2667269 C67.6830922,30.2633363 70.0836347,11.238698 53.0594485,11.238698 Z M59.6406215,24.414557 L45.8273056,24.414557 C45.8273056,24.414557 46.7292043,17.6604882 53.2255877,17.6604882 C59.7219711,17.6604882 59.6406215,24.414557 59.6406215,24.414557 Z M61.3596293,2.66726944 L44.0099458,2.66726944 L44.0099458,8.07188065 L61.3596293,8.07188065 L61.3596293,2.66726944 Z" id="Shape"></path>
                </g>
            </g>
        </g>
    </g>
</svg>