<?xml version="1.0" encoding="UTF-8"?>
<svg width="68px" height="46px" viewBox="0 0 68 46" version="1.1" xmlns="http://www.w3.org/2000/svg" xmlns:xlink="http://www.w3.org/1999/xlink">
    <!-- Generator: Sketch 51.1 (57501) - http://www.bohemiancoding.com/sketch -->
    <title>behance</title>
    <desc>Created with Sketch.</desc>
    <defs></defs>
    <g id="wireframes" stroke="none" stroke-width="1" fill="none" fill-rule="evenodd">
        <g id="Apple-TV-Copy-2" transform="translate(-1148.000000, -4442.000000)" fill="#A757B3" fill-rule="nonzero">
            <g id="behance" transform="translate(1148.000000, 4442.000000)">
                <path d="M27.3688969,20.6299733 C27.3688969,20.6299733 33.783906,20.1315556 33.783906,12.2924959 C33.783906,4.44326444 28.5352622,0.62545251 21.8829114,0.62545251 L0,0.62545251 L0,44.452306 L21.8829114,44.452306 C21.8829114,44.452306 35.2452532,44.889693 35.2452532,31.5137889 C35.2418626,31.5103983 35.8250452,20.6299733 27.3688969,20.6299733 Z M9.64285714,8.41026264 L21.8829114,8.41026264 C21.8829114,8.41026264 24.8598553,8.41026264 24.8598553,12.9672247 C24.8598553,17.5309679 23.1103074,18.1921342 21.1234177,18.1921342 L9.64285714,18.1921342 L9.64285714,8.41026264 Z M21.2624322,36.6607147 L9.64285714,36.6607147 L9.64285714,24.9461794 L21.8829114,24.946203 C21.8829114,24.946203 26.3178119,24.8851722 26.3178119,30.9645122 C26.3178119,36.0910945 23.0051989,36.6234182 21.2624322,36.6607147 Z M53.0594485,11.770344 C36.8829114,11.770344 36.8964738,28.611438 36.8964738,28.611438 C36.8964738,28.611438 35.7911392,45.3643766 53.0594485,45.3643766 C53.0594485,45.3643766 67.4457505,46.2255881 67.4457505,33.7108955 L60.0474684,33.7108955 C60.0474684,33.7108955 60.2915913,38.4272156 53.306962,38.4272156 C53.306962,38.4272156 45.9018987,38.9425863 45.9018987,30.7983729 L67.6797016,30.7983729 C67.6830922,30.7949823 70.0836347,11.770344 53.0594485,11.770344 Z M59.6406215,24.946203 L45.8273056,24.946203 C45.8273056,24.946203 46.7292043,18.1921342 53.2255877,18.1921342 C59.7219711,18.1921342 59.6406215,24.946203 59.6406215,24.946203 Z M61.3596293,3.19891544 L44.0099458,3.19891544 L44.0099458,8.60352665 L61.3596293,8.60352665 L61.3596293,3.19891544 Z" id="Shape"></path>
            </g>
        </g>
    </g>
</svg>