<?xml version="1.0" encoding="UTF-8"?>
<svg width="48px" height="48px" viewBox="0 0 48 48" version="1.1" xmlns="http://www.w3.org/2000/svg" xmlns:xlink="http://www.w3.org/1999/xlink">
    <!-- Generator: Sketch 51.1 (57501) - http://www.bohemiancoding.com/sketch -->
    <title>linkedin</title>
    <desc>Created with Sketch.</desc>
    <defs></defs>
    <g id="wireframes" stroke="none" stroke-width="1" fill="none" fill-rule="evenodd">
        <g id="Apple-TV-Copy-2" transform="translate(-910.000000, -4522.000000)" fill="#A757B3" fill-rule="nonzero">
            <g id="linkedin" transform="translate(910.000000, 4522.000000)">
                <path d="M10.9535862,5.2742616 C10.9535862,8.17510549 9.10759465,10.5485232 5.6793246,10.5485232 C2.51476764,10.5485232 0.405063,8.17510549 0.405063,5.53797468 C0.405063,2.6371308 2.51476764,0 5.6793246,0 C8.84388157,0 10.9535862,2.37341772 10.9535862,5.2742616 Z M0.405063,47.4683544 L10.9535862,47.4683544 L10.9535862,13.185654 L0.405063,13.185654 L0.405063,47.4683544 Z M36.2700419,13.7130802 C30.7320672,13.7130802 27.5675103,16.8776371 26.2489449,18.9873418 L25.9852318,18.9873418 L25.4578056,14.5042194 L15.9641347,14.5042194 C15.9641347,17.4050633 16.2278478,20.8333333 16.2278478,24.7890295 L16.2278478,47.4683544 L26.776371,47.4683544 L26.776371,28.7447257 C26.776371,27.6898734 26.776371,26.8987342 27.0400841,26.1075949 C27.8312233,24.2616034 29.1497887,21.8881857 32.0506326,21.8881857 C35.7426157,21.8881857 37.3248942,25.0527426 37.3248942,29.2721519 L37.3248942,47.4683544 L47.8734174,47.4683544 L47.8734174,27.9535865 C47.8734174,18.1962025 42.8628689,13.7130802 36.2700419,13.7130802 Z" id="Shape"></path>
            </g>
        </g>
    </g>
</svg>