<?xml version="1.0" encoding="UTF-8"?>
<svg width="49px" height="48px" viewBox="0 0 49 48" version="1.1" xmlns="http://www.w3.org/2000/svg" xmlns:xlink="http://www.w3.org/1999/xlink">
    <!-- Generator: Sketch 51.1 (57501) - http://www.bohemiancoding.com/sketch -->
    <title>linkedin</title>
    <desc>Created with Sketch.</desc>
    <defs></defs>
    <g id="wireframes" stroke="none" stroke-width="1" fill="none" fill-rule="evenodd">
        <g id="Apple-TV" transform="translate(-860.000000, -2938.000000)" fill="#FFFFFF" fill-rule="nonzero">
            <g id="Group-2" transform="translate(694.000000, 2938.000000)">
                <g id="linkedin" transform="translate(166.666667, 0.000000)">
                    <path d="M10.5485232,5.2742616 C10.5485232,8.17510549 8.70253165,10.5485232 5.2742616,10.5485232 C2.10970464,10.5485232 0,8.17510549 0,5.53797468 C0,2.6371308 2.10970464,0 5.2742616,0 C8.43881857,0 10.5485232,2.37341772 10.5485232,5.2742616 Z M0,47.4683544 L10.5485232,47.4683544 L10.5485232,13.185654 L0,13.185654 L0,47.4683544 Z M35.8649789,13.7130802 C30.3270042,13.7130802 27.1624473,16.8776371 25.8438819,18.9873418 L25.5801688,18.9873418 L25.0527426,14.5042194 L15.5590717,14.5042194 C15.5590717,17.4050633 15.8227848,20.8333333 15.8227848,24.7890295 L15.8227848,47.4683544 L26.371308,47.4683544 L26.371308,28.7447257 C26.371308,27.6898734 26.371308,26.8987342 26.6350211,26.1075949 C27.4261603,24.2616034 28.7447257,21.8881857 31.6455696,21.8881857 C35.3375527,21.8881857 36.9198312,25.0527426 36.9198312,29.2721519 L36.9198312,47.4683544 L47.4683544,47.4683544 L47.4683544,27.9535865 C47.4683544,18.1962025 42.4578059,13.7130802 35.8649789,13.7130802 Z" id="Shape"></path>
                </g>
            </g>
        </g>
    </g>
</svg>