<?xml version="1.0" encoding="UTF-8"?>
<svg width="62px" height="48px" viewBox="0 0 62 48" version="1.1" xmlns="http://www.w3.org/2000/svg" xmlns:xlink="http://www.w3.org/1999/xlink">
    <!-- Generator: Sketch 51.1 (57501) - http://www.bohemiancoding.com/sketch -->
    <title>medium</title>
    <desc>Created with Sketch.</desc>
    <defs></defs>
    <g id="wireframes" stroke="none" stroke-width="1" fill="none" fill-rule="evenodd">
        <g id="Apple-TV-Copy-2" transform="translate(-1030.000000, -4493.000000)" fill="#A757B3" fill-rule="nonzero">
            <g id="medium" transform="translate(1030.000000, 4493.000000)">
                <path d="M61.1079515,7.31283949 C61.1079515,7.31283949 58.5641957,7.31283949 58.5641957,9.85627055 C58.5641957,12.3997016 58.5641957,38.6772872 58.5641957,38.6772872 C58.5641957,38.6772872 58.5641957,41.2188069 61.1079515,41.2188069 L61.9547924,41.2188069 L61.9547924,48.0000004 L41.6112119,48.0000004 L41.6112119,41.2188069 L45.0018087,41.2188069 L45.0018087,9.68609175 L44.6628317,9.68609175 L34.272093,48.0000004 L25.1213725,48.0000004 L14.8254166,9.68609175 L14.4864397,9.68609175 L14.4864397,41.2188069 L17.8770364,41.2188069 L17.8770364,48.0000004 L0.924052695,48.0000004 L0.924052695,41.2188069 L1.77089729,41.2188069 C1.77089729,41.2188069 4.31464944,41.2188069 4.31464944,38.6753742 C4.31464944,36.1319448 4.31464944,9.85436096 4.31464944,9.85436096 C4.31464944,9.85436096 4.31464944,7.31283949 1.77089695,7.31283949 L0.924052695,7.31283949 L0.924052695,0.531646 L23.4173841,0.531646 L31.3069765,29.8914325 L31.5669003,29.8914325 L39.5293391,0.531646 L61.9547924,0.531646 L61.9547924,7.31283949 L61.1079515,7.31283949 Z" id="Shape"></path>
            </g>
        </g>
    </g>
</svg>