<?xml version="1.0" encoding="UTF-8"?>
<svg width="62px" height="48px" viewBox="0 0 62 48" version="1.1" xmlns="http://www.w3.org/2000/svg" xmlns:xlink="http://www.w3.org/1999/xlink">
    <!-- Generator: Sketch 51.1 (57501) - http://www.bohemiancoding.com/sketch -->
    <title>medium</title>
    <desc>Created with Sketch.</desc>
    <defs></defs>
    <g id="wireframes" stroke="none" stroke-width="1" fill="none" fill-rule="evenodd">
        <g id="Apple-TV" transform="translate(-1007.000000, -2940.000000)" fill="#FFFFFF" fill-rule="nonzero">
            <g id="Group-2" transform="translate(694.000000, 2938.000000)">
                <g id="medium" transform="translate(313.333333, 2.531646)">
                    <path d="M60.1839005,6.78119349 C60.1839005,6.78119349 57.6401447,6.78119349 57.6401447,9.32462455 C57.6401447,11.8680556 57.6401447,38.1456412 57.6401447,38.1456412 C57.6401447,38.1456412 57.6401447,40.6871609 60.1839005,40.6871609 L61.0307414,40.6871609 L61.0307414,47.4683544 L40.6871609,47.4683544 L40.6871609,40.6871609 L44.0777577,40.6871609 L44.0777577,9.15444575 L43.7387807,9.15444575 L33.348042,47.4683544 L24.1973215,47.4683544 L13.9013656,9.15444575 L13.5623887,9.15444575 L13.5623887,40.6871609 L16.9529854,40.6871609 L16.9529854,47.4683544 L1.69529837e-06,47.4683544 L1.69529837e-06,40.6871609 L0.846846293,40.6871609 C0.846846293,40.6871609 3.39059844,40.6871609 3.39059844,38.1437282 C3.39059844,35.6002988 3.39059844,9.32271496 3.39059844,9.32271496 C3.39059844,9.32271496 3.39059844,6.78119349 0.846845954,6.78119349 L1.69529837e-06,6.78119349 L1.69529837e-06,0 L22.4933331,0 L30.3829255,29.3597865 L30.6428493,29.3597865 L38.6052881,0 L61.0307414,0 L61.0307414,6.78119349 L60.1839005,6.78119349 Z" id="Shape"></path>
                </g>
            </g>
        </g>
    </g>
</svg>